HIERARCHY
ROOT hip
{
  OFFSET 0 0 0
  CHANNELS 6 Xposition Yposition Zposition Zrotation Yrotation Xrotation
  JOINT abdomen
  {
    OFFSET 0 20.6881 -0.73152
    CHANNELS 3 Zrotation Xrotation Yrotation
    JOINT chest
    {
      OFFSET 0 11.7043 -0.48768
      CHANNELS 3 Zrotation Xrotation Yrotation
      JOINT neck
      {
        OFFSET 0 22.1894 -2.19456
        CHANNELS 3 Zrotation Xrotation Yrotation
        JOINT head
        {
          OFFSET -0.24384 7.07133 1.2192
          CHANNELS 3 Zrotation Xrotation Yrotation
          JOINT leftEye
          {
            OFFSET 4.14528 8.04674 8.04672
            CHANNELS 3 Zrotation Xrotation Yrotation
            End Site
            {
              OFFSET 1 0 0
            }
          }
          JOINT rightEye
          {
            OFFSET -3.6576 8.04674 8.04672
            CHANNELS 3 Zrotation Xrotation Yrotation
            End Site
            {
              OFFSET 1 0 0
            }
          }
        }
      }
      JOINT rCollar
      {
        OFFSET -2.68224 19.2634 -4.8768
        CHANNELS 3 Zrotation Xrotation Yrotation
        JOINT rShldr
        {
          OFFSET -8.77824 -1.95073 1.46304
          CHANNELS 3 Zrotation Xrotation Yrotation
          JOINT rForeArm
          {
            OFFSET -28.1742 -1.7115 0.48768
            CHANNELS 3 Zrotation Xrotation Yrotation
            JOINT rHand
            {
              OFFSET -22.5879 0.773209 7.07136
              CHANNELS 3 Zrotation Xrotation Yrotation
              JOINT rThumb1
              {
                OFFSET -1.2192 -0.487915 3.41376
                CHANNELS 3 Zrotation Xrotation Yrotation
                JOINT rThumb2
                {
                  OFFSET -3.37035 -0.52449 3.41376
                  CHANNELS 3 Zrotation Xrotation Yrotation
                  End Site
                  {
                    OFFSET -1.78271 -1.18214 1.43049
                  }
                }
              }
              JOINT rIndex1
              {
                OFFSET -7.75947 0.938293 5.60832
                CHANNELS 3 Zrotation Xrotation Yrotation
                JOINT rIndex2
                {
                  OFFSET -2.54057 -0.884171 1.56538
                  CHANNELS 3 Zrotation Xrotation Yrotation
                  End Site
                  {
                    OFFSET -1.62519 -0.234802 1.16502
                  }
                }
              }
              JOINT rMid1
              {
                OFFSET -8.24714 1.18213 3.41376
                CHANNELS 3 Zrotation Xrotation Yrotation
                JOINT rMid2
                {
                  OFFSET -3.10165 -0.590103 1.0647
                  CHANNELS 3 Zrotation Xrotation Yrotation
                  End Site
                  {
                    OFFSET -2.48547 -0.328903 0.83742
                  }
                }
              }
              JOINT rRing1
              {
                OFFSET -8.82822 0.546677 1.51678
                CHANNELS 3 Zrotation Xrotation Yrotation
                JOINT rRing2
                {
                  OFFSET -2.60934 -0.819778 -0.0198488
                  CHANNELS 3 Zrotation Xrotation Yrotation
                  End Site
                  {
                    OFFSET -2.33842 -0.294052 0.168128
                  }
                }
              }
              JOINT rPinky1
              {
                OFFSET -8.27202 -0.0477905 -0.4584
                CHANNELS 3 Zrotation Xrotation Yrotation
                JOINT rPinky2
                {
                  OFFSET -1.82734 -0.647385 -0.700984
                  CHANNELS 3 Zrotation Xrotation Yrotation
                  End Site
                  {
                    OFFSET -1.69225 -0.51767 -0.607171
                  }
                }
              }
            }
          }
        }
      }
      JOINT lCollar
      {
        OFFSET 2.68224 19.2634 -4.8768
        CHANNELS 3 Zrotation Xrotation Yrotation
        JOINT lShldr
        {
          OFFSET 8.77824 -1.95073 1.46304
          CHANNELS 3 Zrotation Xrotation Yrotation
          JOINT lForeArm
          {
            OFFSET 28.1742 -1.7115 0.48768
            CHANNELS 3 Zrotation Xrotation Yrotation
            JOINT lHand
            {
              OFFSET 22.5879 0.773209 7.07136
              CHANNELS 3 Zrotation Xrotation Yrotation
              JOINT lThumb1
              {
                OFFSET 1.2192 -0.487915 3.41376
                CHANNELS 3 Zrotation Xrotation Yrotation
                JOINT lThumb2
                {
                  OFFSET 3.37035 -0.52449 3.41376
                  CHANNELS 3 Zrotation Xrotation Yrotation
                  End Site
                  {
                    OFFSET 1.78271 -1.18214 1.43049
                  }
                }
              }
              JOINT lIndex1
              {
                OFFSET 7.75947 0.938293 5.60832
                CHANNELS 3 Zrotation Xrotation Yrotation
                JOINT lIndex2
                {
                  OFFSET 2.54057 -0.884171 1.56538
                  CHANNELS 3 Zrotation Xrotation Yrotation
                  End Site
                  {
                    OFFSET 1.62519 -0.234802 1.16502
                  }
                }
              }
              JOINT lMid1
              {
                OFFSET 8.24714 1.18213 3.41376
                CHANNELS 3 Zrotation Xrotation Yrotation
                JOINT lMid2
                {
                  OFFSET 3.10165 -0.590103 1.0647
                  CHANNELS 3 Zrotation Xrotation Yrotation
                  End Site
                  {
                    OFFSET 2.48547 -0.328903 0.83742
                  }
                }
              }
              JOINT lRing1
              {
                OFFSET 8.82822 0.546677 1.51678
                CHANNELS 3 Zrotation Xrotation Yrotation
                JOINT lRing2
                {
                  OFFSET 2.60934 -0.819778 -0.0198488
                  CHANNELS 3 Zrotation Xrotation Yrotation
                  End Site
                  {
                    OFFSET 2.33842 -0.294052 0.168128
                  }
                }
              }
              JOINT lPinky1
              {
                OFFSET 8.27202 -0.0477905 -0.4584
                CHANNELS 3 Zrotation Xrotation Yrotation
                JOINT lPinky2
                {
                  OFFSET 1.82734 -0.647385 -0.700984
                  CHANNELS 3 Zrotation Xrotation Yrotation
                  End Site
                  {
                    OFFSET 1.69225 -0.51767 -0.607171
                  }
                }
              }
            }
          }
        }
      }
    }
  }
  JOINT rButtock
  {
    OFFSET -8.77824 4.35084 1.2192
    CHANNELS 3 Zrotation Xrotation Yrotation
    JOINT rThigh
    {
      OFFSET 0 -1.70687 -2.19456
      CHANNELS 3 Zrotation Xrotation Yrotation
      JOINT rShin
      {
        OFFSET 0 -36.8199 0.73152
        CHANNELS 3 Zrotation Xrotation Yrotation
        JOINT rFoot
        {
          OFFSET 0.73152 -45.1104 -5.12064
          CHANNELS 3 Zrotation Xrotation Yrotation
          End Site
          {
            OFFSET -1.1221 -3.69964 12.103
          }
        }
      }
    }
  }
  JOINT lButtock
  {
    OFFSET 8.77824 4.35084 1.2192
    CHANNELS 3 Zrotation Xrotation Yrotation
    JOINT lThigh
    {
      OFFSET 0 -1.70687 -2.19456
      CHANNELS 3 Zrotation Xrotation Yrotation
      JOINT lShin
      {
        OFFSET 0 -36.8199 0.73152
        CHANNELS 3 Zrotation Xrotation Yrotation
        JOINT lFoot
        {
          OFFSET -0.73152 -45.1104 -5.12064
          CHANNELS 3 Zrotation Xrotation Yrotation
          End Site
          {
            OFFSET 1.1221 -3.69964 12.103
          }
        }
      }
    }
  }
}
MOTION
Frames:	4
Frame Time:	0.00833333
-6.08264 81.6515 -59.947 2.3605 15.8282 27.6577 7.20117 -2.20923 -1.21667 -0.120136 -7.29406 -0.390946 -3.30993 7.58026 -2.18349 8.30131 -13.3309 -2.79929 -0.0 0.0 0.0 -0.0 0.0 0.0 1.7164e-13 -7.82429e-13 8.74653e-14 -4.24673 30.8437 -6.03412 -9.04401 -3.58026 16.0205 -0.140857 -10.6386 -1.51276 3.69133e-09 -2.95613e-09 -1.93772e-09 6.40124e-09 -5.14126e-09 -3.32946e-09 3.69133e-09 -2.95612e-09 -1.93774e-09 7.73091 5.47488 0.417314 3.69133e-09 -2.95612e-09 -1.93772e-09 2.90554 0.965183 0.102902 3.69133e-09 -2.95612e-09 -1.93772e-09 10.2786 0.731801 0.0259123 3.69133e-09 -2.95611e-09 -1.93772e-09 2.22167 -0.733487 -0.20892 1.71871e-13 -7.82402e-13 8.74156e-14 -8.94062 20.5208 16.1499 8.1465 -3.08879 -14.3685 3.3374 44.9317 -8.05977 -4.64381e-10 -1.42831e-09 2.71709e-09 -6.89539e-10 -2.6259e-09 4.68755e-09 -4.64385e-10 -1.4283e-09 2.71711e-09 -7.73091 5.47488 -0.417314 -4.64381e-10 -1.4283e-09 2.71709e-09 -2.90554 0.965183 -0.102902 -4.64389e-10 -1.42831e-09 2.7171e-09 -10.2786 0.731801 -0.0259123 -4.64373e-10 -1.4283e-09 2.71709e-09 -2.22167 -0.733487 0.20892 -2.03217e-16 0.0 -3.88251e-19 2.33696 -53.2254 45.4296 -0.320937 38.7438 0.574936 -0.402346 -17.6962 1.07607 2.03217e-16 0.0 3.88251e-19 -11.5854 -49.2315 -11.6106 0.347963 41.9914 -0.902327 8.2092 -24.2117 15.2695
-6.45359 81.5363 -59.8941 2.6908 17.262 28.1305 7.71902 -1.50103 -0.980333 -0.318392 -7.37102 -0.323372 -3.66769 7.25936 -2.68439 8.82545 -14.1731 -3.59096 -0.0 0.0 0.0 -0.0 0.0 0.0 1.47328e-13 -7.86e-13 1.40478e-13 -4.59081 30.914 -4.02548 -9.03227 -3.57354 15.9988 -0.125918 -10.0549 -1.42789 3.06037e-09 -2.5728e-09 -1.79505e-09 5.31085e-09 -4.47536e-09 -3.08747e-09 3.06037e-09 -2.57279e-09 -1.79507e-09 7.73091 5.47488 0.417314 3.06037e-09 -2.57279e-09 -1.79505e-09 2.90554 0.965183 0.102902 3.06037e-09 -2.57278e-09 -1.79506e-09 10.2786 0.731801 0.0259123 3.06037e-09 -2.57278e-09 -1.79505e-09 2.22167 -0.733487 -0.20892 1.4747e-13 -7.85989e-13 1.40374e-13 -9.1141 19.9481 16.5399 8.08282 -3.05504 -14.2522 3.43797 45.4292 -8.20173 -8.33433e-10 -1.26593e-09 2.15267e-09 -1.34536e-09 -2.367e-09 3.7275e-09 -8.33438e-10 -1.26593e-09 2.15269e-09 -7.73091 5.47488 -0.417314 -8.33434e-10 -1.26593e-09 2.15267e-09 -2.90554 0.965183 -0.102902 -8.33441e-10 -1.26593e-09 2.15268e-09 -10.2786 0.731801 -0.0259123 -8.33425e-10 -1.26593e-09 2.15267e-09 -2.22167 -0.733487 0.20892 -2.03217e-16 0.0 -3.88251e-19 2.05437 -53.0992 44.7252 -0.327337 39.164 0.594729 -0.836205 -17.7287 -0.0915389 2.03217e-16 0.0 3.88251e-19 -11.6294 -50.0308 -12.0403 0.359969 42.399 -0.894711 7.4944 -23.5191 14.1555
-6.88756 81.4538 -59.8455 2.8364 18.8624 28.5937 8.30361 -0.841724 -0.742057 -0.552613 -7.45051 -0.256377 -4.02649 6.90793 -3.19917 9.32604 -15.0229 -4.40433 -0.0 0.0 0.0 -0.0 0.0 0.0 7.95918e-14 -6.09466e-13 1.7689e-13 -4.9782 30.7769 -1.94035 -9.00955 -3.56057 15.957 -0.109941 -9.31308 -1.32072 1.71279e-09 -1.37001e-09 -1.22342e-09 2.97731e-09 -2.38589e-09 -2.10775e-09 1.71279e-09 -1.37001e-09 -1.22343e-09 7.73091 5.47488 0.417314 1.71278e-09 -1.37001e-09 -1.22342e-09 2.90554 0.965183 0.102902 1.71279e-09 -1.37e-09 -1.22342e-09 10.2786 0.731801 0.0259123 1.71278e-09 -1.37e-09 -1.22341e-09 2.22167 -0.733487 -0.20892 7.95655e-14 -6.09481e-13 1.76688e-13 -9.27022 19.411 16.8729 8.03284 -3.02881 -14.1608 3.54555 45.947 -8.35224 -9.8675e-10 -7.77078e-10 9.51616e-10 -1.65491e-09 -1.52142e-09 1.66536e-09 -9.86755e-10 -7.77077e-10 9.5163e-10 -7.73091 5.47488 -0.417314 -9.8675e-10 -7.77077e-10 9.51619e-10 -2.90554 0.965183 -0.102902 -9.86756e-10 -7.77078e-10 9.51619e-10 -10.2786 0.731801 -0.0259123 -9.86742e-10 -7.77077e-10 9.51611e-10 -2.22167 -0.733487 0.20892 -2.03217e-16 0.0 -3.88251e-19 1.8878 -52.9822 43.9529 -0.334729 39.6737 0.625696 -1.82042 -18.1413 -2.69378 2.03217e-16 0.0 3.88251e-19 -11.6824 -50.9305 -12.5423 0.372144 42.8026 -0.88701 6.75745 -22.7584 12.9727
-7.36916 81.4277 -59.838 2.945 20.6535 29.1214 8.91607 -0.205885 -0.509171 -0.81523 -7.56515 -0.19199 -4.39536 6.58224 -3.73412 9.82599 -15.8845 -5.25047 -0.0 0.0 0.0 -0.0 0.0 0.0 3.47608e-15 -3.71508e-13 1.90494e-13 -5.38207 30.5119 0.200956 -8.9715 -3.53909 15.8866 -0.0899234 -8.37546 -1.18582 2.91701e-10 1.55014e-10 -6.48614e-10 5.15114e-10 2.62346e-10 -1.12286e-09 2.91701e-10 1.55017e-10 -6.4862e-10 7.73091 5.47488 0.417314 2.91697e-10 1.55015e-10 -6.48617e-10 2.90554 0.965183 0.102902 2.91706e-10 1.5502e-10 -6.48613e-10 10.2786 0.731801 0.0259123 2.91696e-10 1.55021e-10 -6.48607e-10 2.22167 -0.733487 -0.20892 3.27996e-15 -3.7155e-13 1.90196e-13 -9.40008 18.9291 17.1432 7.99142 -3.00722 -14.085 3.65193 46.4437 -8.49959 -9.01149e-10 -2.05667e-10 -3.19196e-10 -1.55633e-09 -5.15047e-10 -5.24737e-10 -9.01155e-10 -2.05667e-10 -3.19187e-10 -7.73091 5.47488 -0.417314 -9.01149e-10 -2.05666e-10 -3.19193e-10 -2.90554 0.965183 -0.102902 -9.01153e-10 -2.05667e-10 -3.19195e-10 -10.2786 0.731801 -0.0259123 -9.01141e-10 -2.05666e-10 -3.19203e-10 -2.22167 -0.733487 0.20892 -2.03217e-16 0.0 -3.88251e-19 1.83297 -52.8531 43.2797 -0.342178 40.1723 0.659847 -3.1193 -18.5685 -5.98691 2.03217e-16 0.0 3.88251e-19 -11.7584 -51.8517 -13.1106 0.382416 43.1255 -0.87699 6.00742 -21.8901 11.7382
